<svg width="46" height="40" viewBox="0 0 46 40" fill="none" xmlns="http://www.w3.org/2000/svg">
<path d="M0.878564 20.9001C0.331142 19.8701 0.346144 18.6322 0.918367 17.6157L9.85406 1.74312C10.4603 0.6663 11.6 0 12.8357 0H31.8642C33.0595 0 34.1681 0.623742 34.7887 1.64535L44.4889 17.6153C45.105 18.6295 45.1516 19.8905 44.612 20.9474L36.0249 37.7687C35.4403 38.9139 34.2631 39.6347 32.9774 39.6347H12.8918C11.6263 39.6347 10.4642 38.9362 9.87029 37.8188L0.878564 20.9001Z" fill="#F5F5F5"/>
<path d="M30.8572 23.125C32.0383 23.125 33 22.2619 33 21.2019L33 15.0481C33 13.9881 32.0383 13.125 30.8572 13.125L28.2857 13.125C27.8031 13.125 27.3592 13.2711 27 13.5142L27 23.125L30.8572 23.125Z" fill="#D94747"/>
<path d="M11 20.5625C11 21.1134 11.2182 21.6267 11.5968 22.0053C11.1687 22.4737 10.9505 23.1017 11.0101 23.7552C11.1174 24.9203 12.167 25.8333 13.4008 25.8333L19.063 25.8333C18.7825 26.6849 18.3334 28.246 18.3334 29.5C18.3334 31.4882 20.0228 33.1666 21.0834 33.1666C22.0358 33.1666 22.716 32.6304 22.7453 32.6084C22.8534 32.5213 22.9167 32.3893 22.9167 32.25L22.9167 29.1416L25.5567 23.4225L25.6667 23.3666L25.6667 13.5417C24.9205 13.1897 23.9764 13 23.375 13L14.9609 13C13.9627 13 13.0891 13.6728 12.8838 14.6014C12.7784 15.079 12.8398 15.5602 13.0497 15.9782C12.3723 16.3192 11.9167 17.0168 11.9167 17.8125C11.9167 18.137 11.9909 18.4477 12.1321 18.7291C11.4547 19.0701 11 19.7677 11 20.5625Z" fill="#D94747"/>
</svg>
