<svg width="46" height="40" viewBox="0 0 46 40" fill="none" xmlns="http://www.w3.org/2000/svg">
<path d="M0.878564 20.9001C0.331142 19.8701 0.346144 18.6322 0.918367 17.6157L9.85406 1.74312C10.4603 0.6663 11.6 0 12.8357 0H31.8642C33.0595 0 34.1681 0.623742 34.7887 1.64535L44.4889 17.6153C45.105 18.6295 45.1516 19.8905 44.612 20.9474L36.0249 37.7687C35.4403 38.9139 34.2631 39.6347 32.9774 39.6347H12.8918C11.6263 39.6347 10.4642 38.9362 9.87029 37.8188L0.878564 20.9001Z" fill="#F5F5F5"/>
<path d="M13.1428 19C11.9617 19 11 19.8631 11 20.9231V27.0769C11 28.1369 11.9617 29 13.1428 29H15.7143C16.1969 29 16.6408 28.8539 17 28.6108V19H13.1428Z" fill="#005A7A"/>
<path d="M33 21.5625C33 21.0116 32.7818 20.4983 32.4032 20.1197C32.8313 19.6513 33.0495 19.0233 32.9899 18.3698C32.8826 17.2047 31.833 16.2917 30.5992 16.2917H24.937C25.2175 15.4401 25.6666 13.879 25.6666 12.625C25.6666 10.6368 23.9772 8.95837 22.9166 8.95837C21.9642 8.95837 21.284 9.49462 21.2547 9.51662C21.1466 9.60372 21.0833 9.73572 21.0833 9.87503V12.9834L18.4433 18.7025L18.3333 18.7584V28.5833C19.0795 28.9353 20.0236 29.125 20.625 29.125H29.0391C30.0373 29.125 30.9109 28.4522 31.1162 27.5236C31.2216 27.046 31.1602 26.5648 30.9503 26.1468C31.6277 25.8058 32.0833 25.1082 32.0833 24.3125C32.0833 23.988 32.0091 23.6773 31.8679 23.3959C32.5453 23.0549 33 22.3573 33 21.5625Z" fill="#005A7A"/>
</svg>
