<svg width="372" height="248" viewBox="0 0 372 248" fill="none" xmlns="http://www.w3.org/2000/svg">
<path d="M172.067 212.288C171.884 210.1 172.292 207.902 173.248 205.925C174.203 203.948 175.672 202.263 177.501 201.047C179.329 199.831 181.451 199.128 183.644 199.012C185.837 198.895 188.021 199.369 189.968 200.384C190.91 197.864 191.878 195.3 193.544 193.192C195.211 191.084 197.73 189.467 200.419 189.566V212.288H172.067Z" fill="#B6B6B6"/>
<path d="M97.3698 124.263L82.8767 153.507L87.2067 153.671L74.9208 176.908H81.3738L71.3099 197.552H127.566L115.176 176.908L121.113 176.65L109.244 153.423L113.629 153.165L97.3698 124.263Z" fill="#B6B6B6"/>
<path d="M99.8249 158.184C99.8944 158.184 99.7704 170.584 99.5472 185.841C99.324 201.098 99.0859 213.498 99.0115 213.493C98.9371 213.488 99.0661 201.093 99.2893 185.836C99.5124 170.579 99.7505 158.184 99.8249 158.184Z" fill="#C4C4C4"/>
<path d="M106.719 165.004C106.441 165.479 106.124 165.93 105.772 166.353C105.162 167.167 104.284 168.263 103.292 169.463L100.762 172.524C100.429 172.961 100.066 173.376 99.6761 173.764C99.9508 173.286 100.266 172.833 100.619 172.41C101.234 171.601 102.107 170.5 103.099 169.3L105.628 166.239C105.96 165.801 106.325 165.388 106.719 165.004Z" fill="#C4C4C4"/>
<path d="M99.696 173.764C98.5901 173.061 97.5298 172.289 96.5216 171.452C95.4608 170.679 94.4518 169.838 93.501 168.933C94.609 169.634 95.671 170.406 96.6803 171.244C97.7415 172.015 98.749 172.856 99.696 173.764Z" fill="#C4C4C4"/>
<path d="M99.3041 188.103C98.9235 187.857 98.568 187.575 98.2427 187.26C97.6078 186.719 96.7547 185.975 95.7627 185.172C94.7707 184.368 93.8679 183.659 93.2132 183.148C92.8416 182.889 92.4932 182.599 92.1716 182.28C92.5765 182.481 92.9603 182.722 93.3174 182.999C94.0068 183.495 94.9344 184.165 95.9264 184.983C96.9184 185.802 97.7764 186.56 98.3816 187.136C98.7195 187.428 99.0284 187.752 99.3041 188.103Z" fill="#C4C4C4"/>
<path d="M107.32 179.24C107.248 179.382 107.16 179.515 107.057 179.636C106.878 179.879 106.605 180.222 106.258 180.628C105.559 181.457 104.547 182.558 103.401 183.753C102.255 184.948 101.229 186.02 100.5 186.818C100.124 187.265 99.7254 187.69 99.3042 188.093C99.3689 187.95 99.456 187.817 99.5621 187.701C99.7407 187.453 100.013 187.111 100.361 186.709C101.06 185.876 102.072 184.775 103.218 183.584C104.363 182.394 105.39 181.313 106.119 180.514C106.495 180.067 106.896 179.642 107.32 179.24Z" fill="#C4C4C4"/>
<path d="M215.368 157.539H274.144L285.126 141.945L296.638 157.981L310.164 157.763L295.586 138.126L230.05 138.399L215.368 157.539Z" fill="#C4C4C4"/>
<path d="M244.761 157.763V212.427H303.453V157.763H296.727L285.126 141.945L274.11 157.525L244.761 157.763Z" fill="#F5F5F5"/>
<path d="M266.784 188.728H253.054V212.427H266.784V188.728Z" fill="#C4C4C4"/>
<path d="M296.638 188.058H275.012V201.455H296.638V188.058Z" fill="#C4C4C4"/>
<path d="M281.505 188.058H281.009V201.579H281.505V188.058Z" fill="#B6B6B6"/>
<path d="M290.497 188.058H290.001V201.579H290.497V188.058Z" fill="#B6B6B6"/>
<path d="M290.249 194.978H281.257V195.474H290.249V194.978Z" fill="#B6B6B6"/>
<path d="M296.638 161.25H275.012V174.647H296.638V161.25Z" fill="#C4C4C4"/>
<path d="M281.505 161.25H281.009V174.771H281.505V161.25Z" fill="#B6B6B6"/>
<path d="M290.497 161.25H290.001V174.771H290.497V161.25Z" fill="#B6B6B6"/>
<path d="M290.249 168.169H281.257V168.665H290.249V168.169Z" fill="#B6B6B6"/>
<path d="M265.35 161.369H251.71V174.284H265.35V161.369Z" fill="#C4C4C4"/>
<path d="M244.766 157.763H220.943V212.422H244.766V157.763Z" fill="#C4C4C4"/>
<path d="M258.778 161.369H258.282V174.284H258.778V161.369Z" fill="#B6B6B6"/>
<path d="M265.35 167.896H251.71V168.392H265.35V167.896Z" fill="#B6B6B6"/>
<path d="M285.096 155.273C286.693 155.273 287.988 153.978 287.988 152.381C287.988 150.784 286.693 149.489 285.096 149.489C283.499 149.489 282.204 150.784 282.204 152.381C282.204 153.978 283.499 155.273 285.096 155.273Z" fill="#C4C4C4"/>
<path d="M264.467 148.835L268.113 144.331V133.503H260.474V148.919L264.467 148.835Z" fill="#F5F5F5"/>
<path d="M264.467 148.835V133.503H268.113V144.331L264.467 148.835Z" fill="#B6B6B6"/>
<path d="M268.629 131.911H259.621V133.503H268.629V131.911Z" fill="#B6B6B6"/>
<path d="M244.761 181.675H200.439V212.427H244.761V181.675Z" fill="#F5F5F5"/>
<path d="M228.19 181.675H200.439V212.427H228.19V181.675Z" fill="#C4C4C4"/>
<path d="M224.058 191.59H205.909V212.372H224.058V191.59Z" fill="#F5F5F5"/>
<path d="M242.321 191.506H230.63V194.482H242.321V191.506Z" fill="#B6B6B6"/>
<path d="M215.368 157.54V159.122H274.109V157.525L215.368 157.54Z" fill="#B6B6B6"/>
<path d="M274.109 159.122L285.096 143.701L285.126 141.945L274.144 157.539L274.109 159.122Z" fill="#B6B6B6"/>
<path d="M309.881 157.763H296.727V158.784H309.881V157.763Z" fill="#B6B6B6"/>
<path d="M262.101 185.097H257.245V186.942H262.101V185.097Z" fill="#C4C4C4"/>
<path d="M334.884 212.427C334.884 212.496 268.222 212.556 186.005 212.556C103.788 212.556 37.1157 212.496 37.1157 212.427C37.1157 212.357 103.763 212.288 186 212.288C268.237 212.288 334.884 212.352 334.884 212.427Z" fill="#263238"/>
<path d="M219.693 68.5571C208.707 53.444 192.736 46.4008 176.045 46.4008C176.045 46.4008 135.229 46.4008 123.142 82.9411C118.678 96.4075 119.67 111.03 125.076 124.144C127.106 129.129 129.663 133.883 132.705 138.324C143.265 153.552 176.08 195.121 176.08 195.121H183.212C192.369 182.404 215.418 140.16 222.322 126.614C230.977 109.616 232.307 85.9072 219.693 68.5571ZM182.875 136.147C175.979 136.147 169.237 134.102 163.503 130.27C157.768 126.439 153.299 120.993 150.66 114.621C148.021 108.249 147.331 101.238 148.677 94.4739C150.023 87.7098 153.344 81.4968 158.221 76.6205C163.098 71.7442 169.311 68.4237 176.076 67.0788C182.84 65.734 189.851 66.4252 196.222 69.0651C202.594 71.705 208.039 76.175 211.87 81.9098C215.701 87.6446 217.745 94.3866 217.744 101.283C217.743 110.53 214.068 119.398 207.529 125.936C200.99 132.474 192.122 136.147 182.875 136.147Z" fill="#005A7A"/>
<path opacity="0.4" d="M219.693 68.5571C208.707 53.444 192.736 46.4008 176.045 46.4008C176.045 46.4008 135.229 46.4008 123.142 82.9411C118.678 96.4075 119.67 111.03 125.076 124.144C127.106 129.129 129.663 133.883 132.705 138.324C143.265 153.552 176.08 195.121 176.08 195.121H183.212C192.369 182.404 215.418 140.16 222.322 126.614C230.977 109.616 232.307 85.9072 219.693 68.5571ZM182.875 136.147C175.979 136.147 169.237 134.102 163.503 130.27C157.768 126.439 153.299 120.993 150.66 114.621C148.021 108.249 147.331 101.238 148.677 94.4739C150.023 87.7098 153.344 81.4968 158.221 76.6205C163.098 71.7442 169.311 68.4237 176.076 67.0788C182.84 65.734 189.851 66.4252 196.222 69.0651C202.594 71.705 208.039 76.175 211.87 81.9098C215.701 87.6446 217.745 94.3866 217.744 101.283C217.743 110.53 214.068 119.398 207.529 125.936C200.99 132.474 192.122 136.147 182.875 136.147Z" fill="black"/>
<path d="M226.87 68.8398C215.884 53.7317 199.913 46.6885 183.222 46.6885C183.222 46.6885 142.407 46.6885 130.319 83.2288C125.855 96.6952 126.847 111.317 132.258 124.431C134.285 129.417 136.841 134.171 139.882 138.612C150.442 153.834 183.242 195.424 183.242 195.424C183.242 195.424 221.142 143.289 229.484 126.921C238.154 109.894 239.489 86.1949 226.87 68.8398ZM182.92 136.435C176.023 136.435 169.282 134.39 163.548 130.558C157.814 126.727 153.344 121.281 150.705 114.91C148.066 108.538 147.376 101.527 148.721 94.7633C150.066 87.9995 153.387 81.7864 158.264 76.9099C163.14 72.0335 169.353 68.7125 176.117 67.3671C182.881 66.0217 189.892 66.7122 196.264 69.3513C202.635 71.9905 208.081 76.4597 211.912 82.1938C215.744 87.928 217.789 94.6695 217.789 101.566C217.823 106.155 216.944 110.704 215.204 114.95C213.464 119.196 210.897 123.054 207.652 126.298C204.408 129.543 200.55 132.11 196.304 133.85C192.058 135.591 187.508 136.469 182.92 136.435Z" fill="#005A7A"/>
<path d="M182.875 66.4144C175.67 66.4143 168.641 68.6466 162.756 72.8042C156.871 76.9619 152.418 82.8407 150.01 89.6322C152.701 83.6863 157.264 78.785 163.003 75.6774C168.741 72.5698 175.34 71.4269 181.789 72.4234C188.239 73.4199 194.185 76.501 198.718 81.1956C203.251 85.8903 206.123 91.9403 206.893 98.4208C207.663 104.901 206.291 111.456 202.984 117.082C199.678 122.709 194.62 127.098 188.584 129.579C182.547 132.06 175.865 132.495 169.558 130.82C163.25 129.144 157.665 125.449 153.656 120.3C156.952 125.362 161.506 129.481 166.873 132.254C172.24 135.026 178.236 136.356 184.272 136.114C190.307 135.872 196.177 134.065 201.304 130.872C206.432 127.678 210.642 123.207 213.521 117.897C216.401 112.587 217.851 106.619 217.73 100.58C217.609 94.5404 215.921 88.6359 212.831 83.4452C209.741 78.2545 205.356 73.9557 200.104 70.9701C194.853 67.9846 188.916 66.4147 182.875 66.4144Z" fill="#005A7A"/>
<path opacity="0.4" d="M182.875 66.4144C175.67 66.4143 168.641 68.6466 162.756 72.8042C156.871 76.9619 152.418 82.8407 150.01 89.6322C152.701 83.6863 157.264 78.785 163.003 75.6774C168.741 72.5698 175.34 71.4269 181.789 72.4234C188.239 73.4199 194.185 76.501 198.718 81.1956C203.251 85.8903 206.123 91.9403 206.893 98.4208C207.663 104.901 206.291 111.456 202.984 117.082C199.678 122.709 194.62 127.098 188.584 129.579C182.547 132.06 175.865 132.495 169.558 130.82C163.25 129.144 157.665 125.449 153.656 120.3C156.952 125.362 161.506 129.481 166.873 132.254C172.24 135.026 178.236 136.356 184.272 136.114C190.307 135.872 196.177 134.065 201.304 130.872C206.432 127.678 210.642 123.207 213.521 117.897C216.401 112.587 217.851 106.619 217.73 100.58C217.609 94.5404 215.921 88.6359 212.831 83.4452C209.741 78.2545 205.356 73.9557 200.104 70.9701C194.853 67.9846 188.916 66.4147 182.875 66.4144Z" fill="black"/>
<path d="M252.4 117.269C250.997 116.306 249.295 115.878 247.603 116.064C244.746 116.391 240.605 116.813 240.605 116.813V116.947L220.601 118.177L214.475 105.752L205.195 111.868C205.195 111.868 206.415 113.822 211.618 123.43C212.634 125.305 214.201 126.823 216.107 127.779C218.013 128.736 220.167 129.084 222.277 128.777L245.832 125.305V125.26C248.268 125.126 250.902 124.898 251.289 124.546C252.023 123.881 252.687 121.451 252.687 121.451C252.687 121.451 256.883 123.931 257.692 124C258.5 124.069 258.649 123.38 259.15 122.666C259.507 122.224 255.182 119.164 252.4 117.269Z" fill="#FFBE9D"/>
<path d="M215.725 104.959C215.725 104.959 211.837 97.4739 208.285 90.4059C203.911 81.7309 194.263 79.9899 194.263 79.9899L180.286 78.1547C180.286 78.1547 168.59 72.8723 157.728 85.9915L148.8 95.9661L150.7 97.6773L159.553 105.613L161.304 107.191L165.312 103.064L163.452 113.515L160.163 128.087L167.271 127.229L172.077 97.841L199.179 99.9986L197.016 118.544C197.453 118.48 200.731 117.835 201.798 113.381C202.14 111.959 202.14 110.477 201.798 109.056L203.365 113.068L215.725 104.959Z" fill="#455A64"/>
<path d="M172.043 97.8558L167.236 127.244L160.129 128.102C164.876 132.198 170.642 134.936 176.817 136.028C182.992 137.119 189.347 136.523 195.211 134.302L197.016 118.544L199.144 100.013L172.043 97.8558Z" fill="#263238"/>
<path d="M173.65 76.6965L173.064 100.569L177.568 101.283L178.173 77.0883C178.173 77.0883 176.601 76.3443 173.65 76.6965Z" fill="#263238"/>
<path d="M192.775 100.688L196.5 80.1834C196.714 79.9552 199.769 81.0513 200.692 82.0929L197.349 101.115L192.775 100.688Z" fill="#263238"/>
<path d="M177.747 97.7715C177.794 97.9017 177.818 98.0395 177.816 98.1782C177.85 98.5544 177.85 98.9329 177.816 99.3091C177.781 99.8863 177.587 100.443 177.256 100.916C177.051 101.199 176.78 101.427 176.467 101.581C176.12 101.737 175.735 101.784 175.361 101.715C175.011 101.641 174.679 101.495 174.388 101.288C174.096 101.081 173.85 100.816 173.664 100.509C173.377 100.014 173.208 99.4589 173.168 98.8875C173.136 98.5113 173.136 98.1329 173.168 97.7566C173.166 97.6158 173.191 97.476 173.243 97.3449C173.288 97.3449 173.243 97.9402 173.347 98.8677C173.416 99.3943 173.594 99.9009 173.868 100.356C174.039 100.63 174.265 100.866 174.53 101.051C174.795 101.236 175.094 101.365 175.41 101.432C175.724 101.487 176.046 101.452 176.341 101.331C176.635 101.21 176.889 101.008 177.072 100.748C177.389 100.31 177.585 99.7967 177.642 99.2595C177.752 98.3667 177.697 97.7715 177.747 97.7715Z" fill="#455A64"/>
<path d="M175.088 99.8795C174.834 99.7782 174.63 99.58 174.521 99.3284C174.413 99.0767 174.409 98.7924 174.51 98.5378C174.612 98.2833 174.81 98.0794 175.061 97.9711C175.313 97.8627 175.597 97.8587 175.852 97.96C175.978 98.0102 176.093 98.0846 176.19 98.1792C176.287 98.2738 176.365 98.3866 176.419 98.5112C176.472 98.6358 176.501 98.7697 176.503 98.9053C176.505 99.041 176.48 99.1756 176.43 99.3017C176.38 99.4277 176.305 99.5426 176.211 99.6399C176.116 99.7371 176.003 99.8148 175.879 99.8685C175.754 99.9221 175.62 99.9507 175.484 99.9526C175.349 99.9545 175.214 99.9297 175.088 99.8795Z" fill="#455A64"/>
<path d="M196.277 100.008C196.278 100.214 196.218 100.415 196.105 100.586C195.991 100.757 195.83 100.891 195.641 100.97C195.451 101.049 195.243 101.07 195.041 101.031C194.84 100.991 194.655 100.893 194.509 100.748C194.364 100.603 194.265 100.419 194.224 100.218C194.184 100.016 194.204 99.8076 194.282 99.6179C194.361 99.4282 194.493 99.266 194.664 99.1519C194.835 99.0377 195.035 98.9768 195.24 98.9768C195.515 98.9768 195.777 99.0853 195.972 99.2787C196.166 99.472 196.276 99.7344 196.277 100.008Z" fill="#455A64"/>
<path d="M197.661 99.2942C197.653 99.7064 197.574 100.114 197.428 100.5C197.289 100.938 197.053 101.339 196.738 101.675C196.538 101.883 196.292 102.043 196.021 102.143C195.749 102.242 195.459 102.279 195.171 102.25C194.597 102.188 194.066 101.914 193.683 101.482C193.385 101.128 193.186 100.702 193.108 100.247C193.05 99.9475 193.04 99.6411 193.078 99.3389C193.084 99.2262 193.114 99.1162 193.167 99.0165C193.174 99.4175 193.214 99.8173 193.286 100.212C193.383 100.624 193.58 101.006 193.862 101.323C194.211 101.7 194.685 101.937 195.196 101.992C195.448 102.019 195.703 101.988 195.942 101.902C196.181 101.816 196.397 101.678 196.575 101.496C196.875 101.194 197.108 100.833 197.259 100.435C197.517 99.7456 197.616 99.2794 197.661 99.2942Z" fill="#455A64"/>
<path d="M175.004 109.12C174.969 109.12 174.954 108.922 174.964 108.624C174.964 108.47 174.964 108.282 174.989 108.078C174.989 107.969 174.989 107.86 175.014 107.756V107.587V107.498V107.414L175.157 107.285C175.74 107.305 176.317 107.41 176.869 107.597C176.288 107.662 175.702 107.642 175.128 107.538C175.098 107.568 175.4 107.295 175.271 107.414V107.488V107.577V107.751C175.271 107.86 175.247 107.964 175.232 108.078C175.232 108.287 175.177 108.47 175.152 108.629C175.088 108.912 175.038 109.12 175.004 109.12Z" fill="#455A64"/>
<path d="M174.279 115.935C174.214 115.362 174.233 114.782 174.334 114.214C174.352 113.636 174.456 113.065 174.642 112.518C174.713 113.09 174.696 113.671 174.592 114.239C174.569 114.816 174.464 115.387 174.279 115.935Z" fill="#455A64"/>
<path d="M175.286 121.852C174.72 121.713 174.176 121.49 173.674 121.193C173.674 121.222 173.54 120.95 173.6 121.064V120.989V120.9V120.726L173.645 120.404C173.674 120.201 173.704 120.012 173.729 119.858C173.788 119.551 173.838 119.362 173.873 119.362C173.907 119.362 173.922 119.566 173.912 119.858C173.912 120.017 173.903 120.201 173.883 120.409C173.883 120.523 173.883 120.627 173.853 120.736V120.905V120.994V121.074C173.917 121.188 173.769 120.915 173.783 120.945C174.326 121.172 174.833 121.478 175.286 121.852Z" fill="#455A64"/>
<path d="M179.869 124.129C179.035 123.913 178.253 123.532 177.568 123.008C177.995 123.078 178.403 123.233 178.768 123.464C179.176 123.611 179.55 123.837 179.869 124.129Z" fill="#455A64"/>
<path d="M185.325 125.384C184.845 125.717 184.319 125.978 183.763 126.158H183.639H183.599L183.52 126.118L183.366 126.039L183.079 125.89L182.583 125.617C182.315 125.458 182.156 125.344 182.171 125.309C182.186 125.275 182.374 125.309 182.667 125.453C182.811 125.513 182.984 125.587 183.163 125.677L183.456 125.815L183.614 125.89L183.694 125.924H183.733H183.649C184.178 125.662 184.743 125.48 185.325 125.384Z" fill="#455A64"/>
<path d="M189.031 123.881C189.055 123.95 188.664 124.169 188.153 124.377C187.642 124.585 187.205 124.699 187.161 124.635C187.116 124.57 187.528 124.347 188.039 124.139C188.549 123.931 189.001 123.816 189.031 123.881Z" fill="#455A64"/>
<path d="M192.671 120.751C192.737 121.331 192.72 121.917 192.622 122.492L192.537 122.601H192.498L192.413 122.636L192.255 122.7L191.952 122.815C191.754 122.884 191.58 122.948 191.426 122.993C191.129 123.092 190.93 123.137 190.93 123.102C190.93 123.068 191.089 122.968 191.367 122.824L191.863 122.591L192.165 122.462L192.324 122.398L192.403 122.363H192.448L192.369 122.472C192.383 121.887 192.485 121.306 192.671 120.751Z" fill="#455A64"/>
<path d="M193.331 114.323C193.396 115.405 193.284 116.491 192.999 117.537C192.929 116.999 192.943 116.454 193.038 115.92C193.052 115.376 193.151 114.837 193.331 114.323Z" fill="#455A64"/>
<path d="M192.116 109.199C192.696 109.134 193.282 109.154 193.857 109.259L193.971 109.398V109.477V109.566V109.735C193.971 109.844 193.946 109.948 193.931 110.057C193.901 110.266 193.877 110.449 193.847 110.608C193.792 110.916 193.738 111.104 193.703 111.104C193.668 111.104 193.658 110.901 193.663 110.608C193.663 110.449 193.663 110.261 193.693 110.052L193.718 109.73V109.556V109.393L193.832 109.532C193.247 109.506 192.668 109.394 192.116 109.199Z" fill="#455A64"/>
<path d="M186.03 108.545C187.056 108.481 188.086 108.592 189.075 108.872C188.564 108.944 188.045 108.933 187.538 108.837C187.023 108.82 186.514 108.722 186.03 108.545Z" fill="#455A64"/>
<path d="M179.944 107.885C180.455 107.813 180.974 107.824 181.481 107.92C181.99 107.939 182.492 108.037 182.969 108.212C181.943 108.276 180.913 108.165 179.924 107.885H179.944Z" fill="#455A64"/>
<path d="M148.056 99.4827C148.021 100.078 148.006 100.678 148.006 101.283C148.005 103.639 148.242 105.989 148.716 108.297V108.366C148.775 108.654 148.845 108.936 148.914 109.219C149.182 110.34 149.504 111.446 149.861 112.537C149.906 112.671 149.951 112.81 150 112.944C151.28 112.656 154.99 109.442 159.261 105.43L150.412 97.4938C149.187 98.704 148.458 99.3438 148.056 99.4827Z" fill="#FFBE9D"/>
<path d="M203.915 47.9681C204.223 51.3955 208.126 54.2822 211.569 54.1781C213.463 54.1185 215.383 53.2753 217.203 53.8011C220.259 54.6889 221.494 58.9496 224.643 59.52C226.984 59.9465 229.142 58.032 231.518 57.9229C233.264 57.8286 234.911 58.7016 236.359 59.6837C237.807 60.6657 239.186 61.8016 240.823 62.3621C242.46 62.9225 243.997 61.9305 245.669 61.4197C246.08 62.4811 246.353 63.7905 246.884 64.8917C247.415 65.9928 248.059 68.0313 247.117 68.4678C247.117 68.4678 244.483 69.8318 242.961 69.7574C243.576 70.3776 244.344 70.8243 245.187 71.0525C246.03 71.2807 246.918 71.2822 247.762 71.0569C248.183 73.6064 248.501 76.5477 246.77 78.4672C245.961 79.2993 244.927 79.8769 243.794 80.1288C238.268 81.5573 232.49 77.6934 226.88 78.7449C224.579 79.1814 222.471 80.4214 220.145 80.7289C218.997 80.8711 217.833 80.7824 216.721 80.4681C215.608 80.1538 214.57 79.6202 213.667 78.8987C211.455 77.1081 209.932 74.1123 207.125 73.6411C205.88 73.4377 204.62 73.7949 203.4 74.1371C202.179 74.4793 200.92 74.8067 199.675 74.5438C198.43 74.2809 197.279 73.2294 197.334 71.9696" fill="#263238"/>
<path d="M192.944 81.2547C193.564 77.7827 194.278 74.1768 194.278 74.1768C194.278 74.1768 198.861 74.2214 200.811 68.572C202.666 63.1854 204.005 50.22 204.005 50.22C201.065 48.39 197.635 47.5041 194.177 47.6815C190.719 47.8588 187.398 49.0909 184.661 51.212L180.093 79.36C179.562 82.6286 181.948 85.684 185.449 86.2246C188.976 86.8 192.334 84.5481 192.944 81.2547Z" fill="#FFBE9D"/>
<path d="M200.577 59.9317C200.546 60.126 200.439 60.3001 200.281 60.4169C200.122 60.5337 199.924 60.5838 199.729 60.5566C199.633 60.548 199.539 60.5201 199.453 60.4745C199.367 60.4289 199.292 60.3665 199.231 60.2911C199.17 60.2157 199.124 60.1287 199.097 60.0355C199.071 59.9422 199.063 59.8445 199.074 59.7482C199.107 59.5535 199.215 59.3793 199.374 59.2626C199.534 59.1459 199.732 59.0959 199.928 59.1232C200.024 59.1324 200.117 59.1608 200.202 59.2067C200.287 59.2526 200.362 59.3151 200.423 59.3904C200.484 59.4658 200.528 59.5525 200.555 59.6454C200.581 59.7384 200.589 59.8357 200.577 59.9317Z" fill="#263238"/>
<path d="M201.931 59.3117C201.822 59.391 201.331 58.8752 200.528 58.7363C199.724 58.5974 199.07 58.8901 199 58.781C198.931 58.6718 199.089 58.5677 199.377 58.4288C199.767 58.2475 200.204 58.192 200.627 58.2701C201.042 58.3456 201.423 58.5484 201.718 58.8504C201.931 59.0835 201.986 59.272 201.931 59.3117Z" fill="#263238"/>
<path d="M192.344 58.6272C192.311 58.8219 192.203 58.9961 192.044 59.1128C191.885 59.2295 191.686 59.2795 191.491 59.2522C191.395 59.2429 191.301 59.2146 191.216 59.1687C191.131 59.1228 191.056 59.0603 190.995 58.985C190.935 58.9096 190.89 58.8229 190.863 58.7299C190.837 58.637 190.829 58.5396 190.841 58.4437C190.874 58.249 190.981 58.0748 191.141 57.9581C191.3 57.8414 191.499 57.7914 191.694 57.8187C191.79 57.828 191.884 57.8563 191.969 57.9022C192.054 57.9481 192.129 58.0106 192.189 58.0859C192.25 58.1613 192.295 58.248 192.321 58.341C192.348 58.4339 192.356 58.5313 192.344 58.6272Z" fill="#263238"/>
<path d="M193.514 58.1262C193.405 58.2056 192.914 57.6898 192.111 57.5509C191.307 57.412 190.652 57.7096 190.578 57.5955C190.504 57.4814 190.667 57.3872 190.96 57.2434C191.35 57.0663 191.784 57.0127 192.205 57.0896C192.623 57.1609 193.007 57.3643 193.301 57.6699C193.514 57.903 193.569 58.0915 193.514 58.1262Z" fill="#263238"/>
<path d="M195.374 64.5891C195.821 64.5321 196.272 64.5321 196.719 64.5891C196.927 64.5891 197.13 64.5891 197.19 64.4651C197.243 64.2569 197.233 64.0375 197.16 63.8352C197.056 63.3045 196.947 62.749 196.828 62.1686C196.376 59.8027 196.094 57.8683 196.188 57.8485C196.282 57.8286 196.724 59.7382 197.18 62.1091C197.284 62.6894 197.388 63.245 197.482 63.7757C197.57 64.0454 197.557 64.3376 197.448 64.599C197.405 64.6658 197.349 64.7223 197.282 64.7643C197.215 64.8064 197.139 64.8329 197.061 64.8421C196.942 64.8553 196.822 64.8553 196.704 64.8421C196.252 64.8129 195.805 64.728 195.374 64.5891Z" fill="#263238"/>
<path d="M194.258 74.1768C191.513 73.7293 188.945 72.5272 186.843 70.7048C186.843 70.7048 188.029 75.0299 193.941 75.5061L194.258 74.1768Z" fill="#EB996E"/>
<path d="M194.695 66.464C194.575 66.2466 194.402 66.0628 194.192 65.9293C193.982 65.7959 193.743 65.7171 193.495 65.7002C193.316 65.6863 193.136 65.7081 192.966 65.7643C192.795 65.8205 192.638 65.91 192.503 66.0275C192.372 66.1428 192.28 66.2957 192.239 66.4652C192.198 66.6347 192.21 66.8127 192.274 66.9749C192.378 67.1387 192.527 67.2688 192.703 67.349C192.879 67.4292 193.075 67.4561 193.266 67.4262C193.668 67.3562 194.051 67.2097 194.397 66.9947C194.5 66.946 194.592 66.8787 194.67 66.7963C194.707 66.7574 194.732 66.7083 194.741 66.6552C194.75 66.6021 194.742 66.5476 194.72 66.4987" fill="#EB996E"/>
<path d="M192.944 64.728C193.078 64.728 192.944 65.6109 193.559 66.3598C194.174 67.1088 195.141 67.1783 195.126 67.3023C195.112 67.4263 194.888 67.4312 194.496 67.3767C193.986 67.294 193.52 67.0341 193.182 66.6426C192.855 66.2661 192.69 65.7762 192.721 65.2786C192.726 64.9115 192.86 64.7082 192.944 64.728Z" fill="#263238"/>
<path d="M188.594 47.0555C190.147 50.4829 195.176 54.6493 199.065 56.1274C198.708 55.423 196.525 53.4341 196.173 52.7298C197.74 54.431 200.007 56.7424 202.403 57.3227C202.679 57.4141 202.975 57.4227 203.256 57.3475C203.411 57.2685 203.545 57.1549 203.649 57.0156C203.753 56.8763 203.824 56.7149 203.856 56.544C204.321 54.8165 204.597 53.0437 204.679 51.2566C204.761 49.7496 204.264 48.2682 203.291 47.115C201.966 45.627 199.819 44.9128 197.725 44.4664C196.003 44.0219 194.21 43.9207 192.448 44.1688C190.727 44.4962 189.12 45.4882 188.604 46.9514" fill="#263238"/>
<path d="M179.324 59.9565C179.295 58.632 179.345 57.307 179.473 55.9885C179.864 52.9629 180.812 41.9665 190.96 44.7937L189.879 47.616C189.879 47.616 190.657 54.6939 185.449 58.4933C185.449 58.4933 185.474 65.5613 181.863 68.1107C181.863 68.1107 179.349 63.3193 179.324 59.9763" fill="#263238"/>
<path d="M185.668 57.9973C185.068 57.7541 184.412 57.6803 183.773 57.784C183.135 57.8947 182.565 58.2507 182.186 58.776C181.842 59.3289 181.719 59.9917 181.844 60.631C181.972 61.2656 182.239 61.8636 182.627 62.3819C182.878 62.7716 183.218 63.0962 183.619 63.3293C183.824 63.4391 184.052 63.4966 184.284 63.4966C184.516 63.4966 184.744 63.4391 184.948 63.3293" fill="#FFBE9D"/>
<path d="M184.661 61.7024C184.725 61.7371 184.388 62.0645 183.847 61.8115C183.705 61.7341 183.58 61.6295 183.479 61.5035C183.378 61.3775 183.302 61.2327 183.257 61.0774C183.142 60.7275 183.098 60.3582 183.128 59.9912C183.149 59.5987 183.311 59.2269 183.584 58.9446C183.698 58.8234 183.838 58.73 183.994 58.6716C184.15 58.6131 184.317 58.5911 184.482 58.6074C185.072 58.6966 185.182 59.1331 185.112 59.1331C185.043 59.1331 184.869 58.9198 184.467 58.9446C184.218 58.994 183.995 59.1305 183.838 59.3296C183.681 59.5287 183.6 59.7773 183.609 60.0309C183.565 60.6856 183.708 61.3155 184.021 61.5189C184.333 61.7222 184.631 61.6429 184.661 61.7024Z" fill="#EB996E"/>
<path d="M244.429 58.4734C244.361 58.6231 244.269 58.7606 244.156 58.8801C243.831 59.2248 243.412 59.4663 242.951 59.5745C242.219 59.7579 241.448 59.704 240.748 59.4208C239.85 59.025 239.015 58.5004 238.268 57.8634C237.415 57.2186 236.463 56.4547 235.243 56.1918C234.612 56.0726 233.962 56.0997 233.343 56.2712C232.683 56.4635 232.043 56.7211 231.434 57.04C230.799 57.3624 230.154 57.7195 229.45 58.032C228.749 58.3755 227.987 58.5777 227.208 58.6272C226.386 58.6543 225.576 58.4199 224.896 57.9576C224.224 57.4689 223.638 56.8722 223.16 56.1918C222.168 54.8725 221.365 53.439 220.155 52.5016C219.567 52.0401 218.867 51.7454 218.126 51.6485C217.41 51.5677 216.685 51.5995 215.978 51.7427C214.589 52.0006 213.29 52.4421 212.01 52.6058C210.823 52.7491 209.619 52.6444 208.474 52.2982C206.813 51.8038 205.328 50.8453 204.193 49.5355C203.777 49.063 203.429 48.5335 203.162 47.9632C203.191 47.9922 203.217 48.0257 203.236 48.0624C203.286 48.1467 203.35 48.2459 203.429 48.3699C204.611 50.2015 206.423 51.5358 208.523 52.1197C209.649 52.4501 210.832 52.543 211.995 52.3925C213.245 52.2238 214.535 51.7774 215.963 51.5096C216.694 51.3549 217.444 51.3197 218.185 51.4054C218.968 51.5057 219.71 51.814 220.333 52.2982C221.603 53.2902 222.411 54.7386 223.393 56.0381C223.852 56.696 224.417 57.2726 225.065 57.7443C225.699 58.1778 226.455 58.3985 227.223 58.3742C227.971 58.3279 228.702 58.134 229.375 57.8038C230.055 57.5062 230.695 57.1541 231.334 56.8118C231.959 56.485 232.616 56.2224 233.294 56.0281C233.941 55.8535 234.619 55.8281 235.278 55.9537C236.426 56.2964 237.483 56.8912 238.373 57.6947C239.101 58.3294 239.916 58.8572 240.793 59.2621C241.464 59.5437 242.205 59.6112 242.916 59.4555C243.364 59.3552 243.777 59.1359 244.111 58.8206C244.34 58.6173 244.419 58.4685 244.429 58.4734Z" fill="#263238"/>
<path d="M130.19 157.004L121.193 175.152L123.876 175.252L116.253 189.675H120.26L114.011 202.487H148.924L141.236 189.675L144.921 189.512L137.556 175.098L140.279 174.939L130.19 157.004Z" fill="#455A64"/>
<path d="M131.708 178.064C131.782 178.064 131.708 185.752 131.589 195.231C131.47 204.709 131.276 212.392 131.207 212.392C131.138 212.392 131.207 204.704 131.331 195.226C131.455 185.747 131.639 178.064 131.708 178.064Z" fill="#263238"/>
<path d="M135.988 182.721C135.851 183.013 135.668 183.28 135.448 183.515C134.958 184.111 134.434 184.679 133.88 185.216C133.245 185.856 132.67 186.427 132.268 186.858C132.067 187.106 131.841 187.334 131.594 187.538C131.73 187.245 131.91 186.976 132.129 186.739C132.622 186.145 133.145 185.577 133.697 185.038C134.337 184.398 134.912 183.828 135.314 183.396C135.513 183.147 135.739 182.921 135.988 182.721Z" fill="#263238"/>
<path d="M131.624 187.721C130.917 187.325 130.252 186.858 129.64 186.327C128.971 185.859 128.352 185.322 127.794 184.725C128.502 185.121 129.167 185.588 129.778 186.119C130.448 186.586 131.067 187.123 131.624 187.721Z" fill="#263238"/>
<path d="M131.386 196.624C130.607 196.074 129.86 195.479 129.149 194.844C128.382 194.275 127.648 193.662 126.951 193.008C127.801 193.455 128.594 194.003 129.312 194.64C130.083 195.213 130.779 195.88 131.386 196.624Z" fill="#263238"/>
<path d="M136.36 191.119C136.425 191.168 135.403 192.498 133.965 193.961L132.154 195.855C131.925 196.138 131.668 196.395 131.385 196.624C131.321 196.575 132.343 195.245 133.781 193.782L135.592 191.892C135.821 191.61 136.079 191.35 136.36 191.119Z" fill="#263238"/>
</svg>
