<svg width="131" height="116" viewBox="0 0 131 116" fill="none" xmlns="http://www.w3.org/2000/svg">
<g opacity="0.06">
<path fill-rule="evenodd" clip-rule="evenodd" d="M0.794947 53.2069C-0.23884 55.0432 -0.265943 57.2797 0.723039 59.1405L29.0049 112.355C30.0778 114.374 32.1774 115.636 34.4636 115.636H97.676C99.9989 115.636 102.126 114.334 103.182 112.265L130.258 59.226C131.232 57.3166 131.148 55.0385 130.035 53.2062L99.5229 2.97251C98.4018 1.12686 96.3989 0 94.2394 0H34.3623C32.1298 0 30.0708 1.20375 28.9756 3.14916L18.2275 22.2412C20.6913 24.4449 25.6869 24.7624 28.0431 24.2269C32.0101 23.2352 41.0018 20.5905 45.2332 17.9459C49.0212 15.5784 53.71 17.0083 56.0741 17.7292C56.3507 17.8136 56.5956 17.8882 56.8034 17.9459L79.6133 27.8632C81.2662 28.7676 82.2579 30.4205 81.2662 32.1607C80.3403 33.7854 78.2529 33.9695 76.9687 33.3957C71.7896 31.0817 62.0265 27.0698 60.4398 26.5409C58.853 26.012 56.2524 26.3205 55.1505 26.5409C53.1716 26.9807 48.56 28.8253 44.5991 30.4097L44.572 30.4205C40.6051 32.0073 42.9191 33.3084 44.2414 32.7346L44.5002 32.6204C48.2865 30.9493 54.6934 28.1217 57.7951 27.8632C60.9687 27.5988 63.0844 30.7511 60.4398 32.1607C56.478 33.559 50.939 36.9288 46.3477 39.722L46.3476 39.7221C44.4262 40.891 42.6707 41.959 41.2662 42.7392C36.7867 45.2278 31.8584 43.7361 29.7316 43.0924C29.5982 43.052 29.4759 43.015 29.3654 42.9825L8.70989 39.1474L0.794947 53.2069ZM55.3558 64.8195C55.776 65.1961 56.312 65.3844 56.9638 65.3844C57.6012 65.3844 58.1228 65.1961 58.5284 64.8195C58.9485 64.4283 59.1585 63.9503 59.1585 63.3853C59.1585 62.8058 58.9485 62.3205 58.5284 61.9294C58.1228 61.5383 57.6012 61.3427 56.9638 61.3427C56.312 61.3427 55.776 61.5383 55.3558 61.9294C54.9502 62.3205 54.7474 62.8058 54.7474 63.3853C54.7474 63.9503 54.9502 64.4283 55.3558 64.8195ZM61.6189 51.2601C62.039 51.6368 62.575 51.8251 63.2269 51.8251C63.8643 51.8251 64.3858 51.6368 64.7915 51.2601C65.2116 50.869 65.4216 50.3909 65.4216 49.826C65.4216 49.2465 65.2116 48.7684 64.7915 48.3918C64.3858 48.0007 63.8643 47.8051 63.2269 47.8051C62.575 47.8051 62.039 48.0007 61.6189 48.3918C61.2133 48.7684 61.0105 49.2465 61.0105 49.826C61.0105 50.3909 61.2133 50.869 61.6189 51.2601ZM65.0739 65.2106V53.0854H61.3582V65.2106H65.0739ZM74.5247 65.2106V62.0598H73.1992C72.7935 62.0598 72.5038 61.9801 72.33 61.8208C72.1561 61.6614 72.0692 61.4006 72.0692 61.0385V56.171H74.5029V53.0854H72.0692V50.1302H68.3534V53.0854H66.8758V56.171H68.3534V60.995C68.3534 62.4871 68.7301 63.5664 69.4834 64.2327C70.2367 64.8846 71.2869 65.2106 72.6342 65.2106H74.5247ZM71.1781 35.55C72.8309 35.8806 73.8473 34.9874 73.4921 33.5665C73.2652 32.6591 67.751 30.6325 63.9619 29.2399L63.9617 29.2398C63.334 29.0091 62.7536 28.7958 62.2524 28.6079L66.55 32.2442C66.55 32.2442 70.2056 35.3555 71.1781 35.55ZM100.266 72.6881L121.178 76.5359L112.859 92.7582C110.478 90.378 104.012 90.8927 101.588 91.4437C97.6213 92.4354 88.6296 95.0801 84.3982 97.7247C80.6101 100.092 75.9213 98.6623 73.5573 97.9414C73.2806 97.857 73.0357 97.7824 72.8279 97.7247L50.0181 87.8074C48.3652 86.903 47.3734 85.2501 48.3652 83.5099C49.2911 81.8852 51.3785 81.7011 52.6627 82.2749C57.8417 84.5889 67.6048 88.6008 69.1916 89.1297C70.7783 89.6586 73.3789 89.3501 74.4808 89.1297C76.4597 88.6899 81.0712 86.8453 85.0321 85.261L85.0593 85.2501C89.0262 83.6633 86.7122 82.3622 85.3899 82.9361L85.131 83.0503L85.1308 83.0504C81.3444 84.7215 74.9378 87.5489 71.8362 87.8074C68.6626 88.0719 66.5469 84.9195 69.1916 83.5099C73.1533 82.1116 78.6923 78.7419 83.2836 75.9486L83.284 75.9484C85.2053 74.7795 86.9607 73.7116 88.3651 72.9314C92.8446 70.4428 97.773 71.9345 99.8998 72.5783L99.9021 72.579C100.035 72.619 100.156 72.6558 100.266 72.6881ZM58.4534 80.1206C56.8005 79.79 55.7841 80.6832 56.1394 82.1041C56.3662 83.0116 61.8805 85.0382 65.6696 86.4307C66.2974 86.6615 66.8778 86.8748 67.379 87.0627L63.0815 83.4264C63.0815 83.4264 59.4259 80.3151 58.4534 80.1206Z" fill="#F5F5F5"/>
</g>
</svg>
