<svg width="391" height="154" viewBox="0 0 391 154" fill="none" xmlns="http://www.w3.org/2000/svg">
<path d="M23.8077 98.5124H46.6957V112H6.33509V40.2704H23.8077V98.5124ZM108.776 82.5725C108.776 84.2073 108.674 85.9103 108.469 87.6814H68.926C69.1985 91.2236 70.3225 93.9484 72.2979 95.8557C74.3415 97.6949 76.8279 98.6145 79.757 98.6145C84.1166 98.6145 87.1479 96.7753 88.8509 93.0969H107.447C106.494 96.8434 104.757 100.215 102.236 103.213C99.784 106.21 96.6846 108.56 92.9381 110.263C89.1915 111.966 85.0022 112.817 80.37 112.817C74.7843 112.817 69.8116 111.625 65.4519 109.241C61.0923 106.857 57.6863 103.451 55.2341 99.0233C52.7818 94.5955 51.5556 89.4184 51.5556 83.4921C51.5556 77.5657 52.7477 72.3886 55.1319 67.9609C57.5842 63.5331 60.9901 60.1272 65.3498 57.743C69.7094 55.3588 74.7162 54.1667 80.37 54.1667C85.8877 54.1667 90.7923 55.3248 95.0838 57.6408C99.3753 59.9569 102.713 63.2607 105.097 67.5522C107.55 71.8437 108.776 76.8504 108.776 82.5725ZM90.8945 77.9744C90.8945 74.9772 89.8727 72.593 87.8291 70.8219C85.7855 69.0508 83.2311 68.1652 80.1657 68.1652C77.2366 68.1652 74.7502 69.0167 72.7066 70.7197C70.7312 72.4227 69.505 74.8409 69.0282 77.9744H90.8945ZM152.734 54.3711C159.41 54.3711 164.723 56.5509 168.674 60.9105C172.693 65.2021 174.703 71.1284 174.703 78.6897V112H157.332V81.0398C157.332 77.2251 156.345 74.2619 154.369 72.1502C152.394 70.0385 149.737 68.9827 146.399 68.9827C143.061 68.9827 140.405 70.0385 138.429 72.1502C136.454 74.2619 135.466 77.2251 135.466 81.0398V112H117.993V54.9842H135.466V62.5454C137.237 60.025 139.621 58.0495 142.619 56.619C145.616 55.1204 148.988 54.3711 152.734 54.3711ZM183.37 83.3899C183.37 77.5316 184.46 72.3886 186.64 67.9609C188.888 63.5331 191.919 60.1272 195.734 57.743C199.549 55.3588 203.806 54.1667 208.506 54.1667C212.253 54.1667 215.659 54.9501 218.724 56.5169C221.858 58.0836 224.31 60.1953 226.081 62.8519V36.3876H243.554V112H226.081V103.826C224.446 106.55 222.096 108.73 219.031 110.365C216.033 112 212.525 112.817 208.506 112.817C203.806 112.817 199.549 111.625 195.734 109.241C191.919 106.789 188.888 103.349 186.64 98.9211C184.46 94.4252 183.37 89.2481 183.37 83.3899ZM226.081 83.4921C226.081 79.1324 224.855 75.6924 222.403 73.172C220.018 70.6516 217.089 69.3914 213.615 69.3914C210.141 69.3914 207.178 70.6516 204.726 73.172C202.342 75.6243 201.149 79.0303 201.149 83.3899C201.149 87.7495 202.342 91.2236 204.726 93.8121C207.178 96.3325 210.141 97.5928 213.615 97.5928C217.089 97.5928 220.018 96.3325 222.403 93.8121C224.855 91.2917 226.081 87.8517 226.081 83.4921Z" fill="#FF931F"/>
<path fill-rule="evenodd" clip-rule="evenodd" d="M260.652 70.3262C258.972 73.3117 258.927 76.9477 260.535 79.9731L286.946 129.666C288.69 132.949 292.104 135 295.82 135H354.816C358.592 135 362.05 132.883 363.767 129.519L379.782 98.1467L372.694 111.968C370.298 109.572 363.789 110.09 361.348 110.645C357.354 111.643 348.302 114.306 344.042 116.968C340.229 119.352 335.508 117.912 333.128 117.186C332.85 117.102 332.603 117.026 332.394 116.968L309.431 106.984C307.767 106.074 306.768 104.41 307.767 102.658C308.699 101.022 310.8 100.837 312.093 101.414C317.307 103.744 327.136 107.783 328.733 108.315C330.331 108.848 332.949 108.537 334.058 108.315C336.05 107.873 340.693 106.016 344.681 104.421L344.708 104.41C348.702 102.812 346.372 101.502 345.041 102.08L344.78 102.195C340.968 103.877 334.518 106.724 331.396 106.984C328.201 107.25 326.071 104.077 328.733 102.658C332.722 101.25 338.298 97.8576 342.92 95.0455L342.921 95.0453C344.855 93.8686 346.622 92.7934 348.036 92.008C352.546 89.5026 357.507 91.0044 359.648 91.6525C359.783 91.6931 359.906 91.7304 360.017 91.7631L381.064 95.6358L388.989 80.112C390.574 77.0077 390.437 73.304 388.627 70.325L360.136 23.4181C358.313 20.4175 355.057 18.5854 351.546 18.5854H295.656C292.026 18.5854 288.679 20.5425 286.898 23.7053L277.262 40.8229C279.677 43.18 284.882 43.5268 287.308 42.9755C291.301 41.9771 300.354 39.3146 304.614 36.6522C308.427 34.2687 313.148 35.7082 315.527 36.434C315.806 36.5189 316.052 36.5941 316.262 36.6522L339.225 46.6363C340.889 47.5468 341.888 49.2108 340.889 50.9627C339.957 52.5984 337.856 52.7837 336.563 52.2061C331.349 49.8764 321.52 45.8376 319.923 45.3051C318.325 44.7726 315.707 45.0832 314.598 45.3051C312.605 45.7478 307.963 47.6048 303.975 49.1999L303.948 49.2108C299.954 50.8083 302.284 52.1181 303.615 51.5404L303.876 51.4255C307.687 49.7432 314.138 46.8965 317.26 46.6363C320.455 46.37 322.585 49.5436 319.923 50.9627C315.934 52.3705 310.358 55.7629 305.736 58.5749C303.801 59.7518 302.034 60.827 300.62 61.6125C296.11 64.1179 291.149 62.6161 289.008 61.968C288.873 61.9274 288.75 61.8901 288.639 61.8574L267.617 57.9543L260.652 70.3262ZM306.42 87.9376C307.103 88.5499 307.975 88.8561 309.035 88.8561C310.071 88.8561 310.919 88.5499 311.578 87.9376C312.261 87.3017 312.603 86.5244 312.603 85.6059C312.603 84.6638 312.261 83.8748 311.578 83.2389C310.919 82.603 310.071 82.2851 309.035 82.2851C307.975 82.2851 307.103 82.603 306.42 83.2389C305.761 83.8748 305.431 84.6638 305.431 85.6059C305.431 86.5244 305.761 87.3017 306.42 87.9376ZM316.603 65.8929C317.286 66.5052 318.157 66.8114 319.217 66.8114C320.254 66.8114 321.101 66.5052 321.761 65.8929C322.444 65.257 322.785 64.4797 322.785 63.5612C322.785 62.6191 322.444 61.8419 321.761 61.2296C321.101 60.5937 320.254 60.2757 319.217 60.2757C318.157 60.2757 317.286 60.5937 316.603 61.2296C315.944 61.8419 315.614 62.6191 315.614 63.5612C315.614 64.4797 315.944 65.257 316.603 65.8929ZM322.22 88.5735V68.8604H316.179V88.5735H322.22ZM337.585 88.5735V83.4509H335.43C334.771 83.4509 334.3 83.3214 334.017 83.0623C333.734 82.8032 333.593 82.3793 333.593 81.7905V73.877H337.55V68.8604H333.593V64.0558H327.552V68.8604H325.15V73.877H327.552V81.7198C327.552 84.1457 328.164 85.9003 329.389 86.9837C330.614 88.0435 332.321 88.5735 334.512 88.5735H337.585ZM330.733 54.3749C332.397 54.7077 333.42 53.8085 333.063 52.378C332.834 51.4644 327.283 49.4242 323.468 48.0223C322.836 47.79 322.252 47.5752 321.747 47.386L326.074 51.0468C326.074 51.0468 329.754 54.1791 330.733 54.3749ZM317.923 99.2456C316.259 98.9128 315.235 99.812 315.593 101.242C315.821 102.156 321.373 104.196 325.188 105.598C325.82 105.831 326.404 106.045 326.908 106.235L322.582 102.574C322.582 102.574 318.902 99.4414 317.923 99.2456Z" fill="#005A7A"/>
</svg>
