<svg width="394" height="154" viewBox="0 0 394 154" fill="none" xmlns="http://www.w3.org/2000/svg">
<path d="M23.8077 98.5124H46.6957V112H6.33509V40.2704H23.8077V98.5124ZM108.776 82.5725C108.776 84.2074 108.674 85.9103 108.469 87.6814H68.926C69.1985 91.2236 70.3225 93.9484 72.2979 95.8557C74.3415 97.695 76.8279 98.6146 79.757 98.6146C84.1166 98.6146 87.1479 96.7754 88.8509 93.0969H107.447C106.494 96.8435 104.757 100.215 102.236 103.213C99.784 106.21 96.6846 108.56 92.9381 110.263C89.1915 111.966 85.0022 112.817 80.37 112.817C74.7843 112.817 69.8116 111.625 65.4519 109.241C61.0923 106.857 57.6863 103.451 55.2341 99.0233C52.7818 94.5955 51.5556 89.4185 51.5556 83.4921C51.5556 77.5657 52.7477 72.3887 55.1319 67.9609C57.5842 63.5332 60.9901 60.1272 65.3498 57.743C69.7094 55.3589 74.7162 54.1668 80.37 54.1668C85.8877 54.1668 90.7923 55.3248 95.0838 57.6409C99.3753 59.9569 102.713 63.2607 105.097 67.5522C107.55 71.8437 108.776 76.8505 108.776 82.5725ZM90.8945 77.9744C90.8945 74.9772 89.8727 72.593 87.8291 70.8219C85.7855 69.0508 83.2311 68.1653 80.1657 68.1653C77.2366 68.1653 74.7502 69.0168 72.7066 70.7197C70.7312 72.4227 69.505 74.841 69.0282 77.9744H90.8945ZM152.734 54.3711C159.41 54.3711 164.723 56.5509 168.674 60.9106C172.693 65.2021 174.703 71.1285 174.703 78.6897V112H157.332V81.0398C157.332 77.2251 156.345 74.2619 154.369 72.1502C152.394 70.0386 149.737 68.9827 146.399 68.9827C143.061 68.9827 140.405 70.0386 138.429 72.1502C136.454 74.2619 135.466 77.2251 135.466 81.0398V112H117.993V54.9842H135.466V62.5454C137.237 60.025 139.621 58.0496 142.619 56.6191C145.616 55.1204 148.988 54.3711 152.734 54.3711ZM183.37 83.3899C183.37 77.5317 184.46 72.3887 186.64 67.9609C188.888 63.5332 191.919 60.1272 195.734 57.743C199.549 55.3589 203.806 54.1668 208.506 54.1668C212.253 54.1668 215.659 54.9501 218.724 56.5169C221.858 58.0836 224.31 60.1953 226.081 62.852V36.3877H243.554V112H226.081V103.826C224.446 106.55 222.096 108.73 219.031 110.365C216.033 112 212.525 112.817 208.506 112.817C203.806 112.817 199.549 111.625 195.734 109.241C191.919 106.789 188.888 103.349 186.64 98.9211C184.46 94.4252 183.37 89.2482 183.37 83.3899ZM226.081 83.4921C226.081 79.1325 224.855 75.6924 222.403 73.172C220.018 70.6516 217.089 69.3914 213.615 69.3914C210.141 69.3914 207.178 70.6516 204.726 73.172C202.342 75.6243 201.149 79.0303 201.149 83.3899C201.149 87.7496 202.342 91.2236 204.726 93.8122C207.178 96.3326 210.141 97.5928 213.615 97.5928C217.089 97.5928 220.018 96.3326 222.403 93.8122C224.855 91.2918 226.081 87.8517 226.081 83.4921Z" fill="#F5F5F5"/>
<path d="M262.581 79.9731C260.973 76.9478 261.017 73.3117 262.697 70.3262L288.943 23.7053C290.724 20.5425 294.071 18.5854 297.701 18.5854H353.591C357.102 18.5854 360.358 20.4175 362.181 23.4181L390.673 70.325C392.482 73.304 392.619 77.0077 391.034 80.1121L365.812 129.519C364.095 132.883 360.637 135 356.861 135H297.866C294.149 135 290.735 132.949 288.991 129.666L262.581 79.9731Z" fill="#FF931F"/>
<path d="M311.08 88.8561C310.02 88.8561 309.149 88.5499 308.466 87.9376C307.806 87.3017 307.477 86.5245 307.477 85.6059C307.477 84.6639 307.806 83.8749 308.466 83.239C309.149 82.603 310.02 82.2851 311.08 82.2851C312.116 82.2851 312.964 82.603 313.624 83.239C314.307 83.8749 314.648 84.6639 314.648 85.6059C314.648 86.5245 314.307 87.3017 313.624 87.9376C312.964 88.5499 312.116 88.8561 311.08 88.8561ZM321.263 66.8114C320.203 66.8114 319.331 66.5052 318.648 65.8929C317.989 65.257 317.659 64.4798 317.659 63.5612C317.659 62.6192 317.989 61.8419 318.648 61.2296C319.331 60.5937 320.203 60.2757 321.263 60.2757C322.299 60.2757 323.147 60.5937 323.806 61.2296C324.489 61.8419 324.831 62.6192 324.831 63.5612C324.831 64.4798 324.489 65.257 323.806 65.8929C323.147 66.5052 322.299 66.8114 321.263 66.8114ZM324.265 68.8604V88.5735H318.224V68.8604H324.265ZM339.63 83.4509V88.5735H336.557C334.366 88.5735 332.659 88.0436 331.434 86.9837C330.21 85.9003 329.597 84.1457 329.597 81.7198V73.877H327.195V68.8604H329.597V64.0558H335.638V68.8604H339.595V73.877H335.638V81.7905C335.638 82.3793 335.78 82.8032 336.062 83.0623C336.345 83.3214 336.816 83.4509 337.475 83.4509H339.63Z" fill="#F5F5F5"/>
<path d="M290.684 61.8574L269.631 57.9487L279.263 40.7796C281.659 43.1758 286.912 43.5302 289.353 42.9755C293.346 41.9771 302.399 39.3147 306.659 36.6522C310.919 33.9898 316.31 36.0976 318.307 36.6523L341.27 46.6363C342.934 47.5468 343.933 49.2108 342.934 50.9628C342.002 52.5984 339.901 52.7838 338.608 52.2061C333.394 49.8764 323.565 45.8376 321.968 45.3051C320.37 44.7726 317.752 45.0832 316.643 45.3051C314.65 45.7478 310.008 47.6049 306.02 49.1999L305.993 49.2108C301.999 50.8083 304.329 52.1181 305.66 51.5405C309.432 49.8764 316.11 46.9026 319.305 46.6363C322.5 46.3701 324.63 49.5436 321.968 50.9628C316.31 52.9596 307.457 58.9501 302.665 61.6125C297.873 64.275 292.57 62.4121 290.684 61.8574Z" fill="white"/>
<path d="M335.108 52.3781C335.465 53.8086 334.442 54.7077 332.778 54.3749C331.799 54.1791 328.119 51.0469 328.119 51.0469L323.792 47.386C327.342 48.7173 334.842 51.3131 335.108 52.3781Z" fill="white"/>
<path d="M362.062 91.7631L383.115 95.6368L374.74 111.968C372.343 109.572 365.834 110.09 363.393 110.645C359.4 111.643 350.347 114.306 346.087 116.968C341.828 119.631 336.436 117.523 334.439 116.968L311.476 106.984C309.812 106.074 308.813 104.41 309.812 102.658C310.744 101.022 312.845 100.837 314.138 101.414C319.352 103.744 329.181 107.783 330.778 108.315C332.376 108.848 334.994 108.537 336.103 108.315C338.096 107.873 342.738 106.016 346.726 104.421L346.753 104.41C350.747 102.812 348.417 101.502 347.086 102.08C343.314 103.744 336.636 106.718 333.441 106.984C330.246 107.25 328.116 104.077 330.778 102.658C336.436 100.661 345.289 94.6705 350.081 92.008C354.874 89.3456 360.176 91.2085 362.062 91.7631Z" fill="white"/>
<path d="M317.638 101.242C317.281 99.812 318.304 98.9129 319.968 99.2457C320.947 99.4415 324.627 102.574 324.627 102.574L328.954 106.235C325.404 104.903 317.905 102.307 317.638 101.242Z" fill="white"/>
</svg>
